<?xml version="1.0" standalone="no"?>
<!DOCTYPE svg PUBLIC "-//W3C//DTD SVG 20010904//EN"
 "http://www.w3.org/TR/2001/REC-SVG-20010904/DTD/svg10.dtd">
<svg version="1.0" xmlns="http://www.w3.org/2000/svg"
 width="300.000000pt" height="300.000000pt" viewBox="0 0 300.000000 300.000000"
 preserveAspectRatio="xMidYMid meet">
<metadata>
Created by potrace 1.10, written by Peter Selinger 2001-2011
</metadata>
<g transform="translate(0.000000,300.000000) scale(0.050000,-0.050000)"
fill="#df1818" stroke="none">
<path d="M2666 5776 c-68 -18 -146 -100 -146 -154 0 -19 -47 -56 -115 -91
-721 -370 -1024 -1266 -679 -2010 56 -122 71 -128 148 -60 82 72 155 110 246
128 138 28 134 22 159 193 105 717 654 1218 1334 1218 162 0 167 -1 195 -57
82 -158 301 -160 382 -4 107 208 -120 405 -314 273 -62 -41 -87 -46 -208 -38
-726 50 -1544 -665 -1548 -1352 -1 -73 -16 -88 -139 -138 -128 -53 -130 -51
-183 127 -165 551 86 1202 582 1513 150 93 176 101 226 66 75 -53 208 -39 276
28 156 157 1 416 -216 358z"/>
<path d="M1222 5548 c-55 -46 -62 -64 -62 -158 0 -88 -13 -128 -81 -239 -306
-505 -281 -1163 64 -1665 69 -101 329 -366 359 -366 10 0 18 -55 18 -122 l0
-122 -152 -141 c-552 -517 -662 -1257 -284 -1918 60 -106 76 -155 76 -233 0
-200 220 -289 377 -153 124 109 13 347 -173 368 l-94 11 -85 170 c-310 620
-113 1388 454 1761 45 30 46 35 22 134 -19 80 -19 128 -1 217 21 98 20 117 -6
131 -251 141 -500 488 -584 815 -112 438 74 1142 302 1142 161 0 253 144 190
296 -53 127 -230 165 -340 72z"/>
<path d="M3670 4447 c-214 -40 -279 -57 -400 -102 -254 -93 -529 -312 -691
-547 -119 -174 -121 -204 -11 -257 441 -213 445 -899 7 -1107 -123 -59 -111
-126 65 -342 486 -599 1350 -748 1979 -342 89 57 129 70 212 70 168 0 274 155
201 296 -106 206 -384 147 -411 -87 l-11 -97 -154 -82 c-593 -315 -1397 -124
-1745 415 l-36 55 113 109 c323 310 330 776 17 1089 -154 155 -156 149 87 381
418 401 1020 496 1531 240 166 -83 197 -112 197 -187 0 -166 166 -272 313
-200 211 104 127 421 -108 405 -77 -5 -112 5 -185 52 -272 175 -721 285 -970
238z"/>
<path d="M2107 3447 c-244 -86 -383 -409 -280 -650 208 -483 933 -341 933 183
0 346 -329 582 -653 467z m349 -281 c115 -86 78 -351 -57 -406 -315 -131 -541
268 -249 438 60 35 242 16 306 -32z"/>
<path d="M1722 2435 c-324 -727 -40 -1602 639 -1972 124 -67 155 -95 176 -153
51 -141 224 -173 335 -62 182 182 -34 468 -255 337 -58 -34 -61 -34 -190 35
-514 274 -792 950 -631 1537 53 194 56 196 196 129 l118 -57 15 -119 c90 -726
699 -1271 1459 -1304 214 -10 260 -18 289 -49 101 -111 347 11 347 173 0 215
-313 297 -411 108 -39 -76 -97 -87 -317 -62 -649 73 -1118 542 -1212 1209 -20
145 -30 175 -60 175 -77 0 -244 70 -318 133 -105 90 -116 87 -180 -58z"/>
</g>
</svg>
